<svg xmlns="http://www.w3.org/2000/svg" version="1.0" viewBox="0 0 705 370"><g fill="#fff"><path d="M3.2 366.8c-1.7-1.7-1.7-155.9 0-157.6 1.7-1.7 43.2-1.7 44.5.1.6.6 7 21.3 14.4 46 7.4 24.6 13.8 44.7 14.4 44.7.5 0 7-20.2 14.4-44.8 7.4-24.6 13.9-45.3 14.4-45.9.7-1 6.4-1.3 22.3-1.3 20.1 0 21.4.1 22.4 1.9 1.4 2.7 1.4 153.5 0 156.2-1 1.7-2.2 1.9-14.5 1.9s-13.5-.2-14.5-1.9c-.6-1.3-1-22.6-1-62.2 0-33.2-.4-59.9-.8-59.3-.5.5-6.6 19.8-13.6 42.9-7 23.1-13.5 42.8-14.3 43.8-1.4 1.5-3.5 1.7-14.9 1.7-12.8 0-13.4-.1-14.8-2.2-.8-1.3-7.2-21-14.2-43.8-7-22.8-13.1-41.9-13.6-42.5-.4-.5-.8 26.2-.8 59.4 0 39.6-.4 60.9-1 62.2-1 1.7-2.2 1.9-14.3 1.9-9 0-13.7-.4-14.5-1.2zM183.2 366.8c-1.7-1.7-1.7-155.9 0-157.6 1.7-1.7 26.9-1.7 28.6 0 1.7 1.7 1.7 155.9 0 157.6-1.7 1.7-26.9 1.7-28.6 0zM245 365.4c-.6-1.5-1-31.2-1-77.4s.4-75.9 1-77.4c.9-2.6 1-2.6 13.4-2.6 6.8 0 13.1.3 14 .6.8.3 13.1 22.4 27.3 49 14.2 26.6 26.1 48.4 26.6 48.4.4 0 .7-21.2.7-47.1 0-30.5.4-47.7 1-49 1-1.7 2.2-1.9 14.3-1.9 9 0 13.7.4 14.5 1.2 1.7 1.7 1.7 155.9 0 157.6-.8.8-5.3 1.2-13.5 1.2-10.5 0-12.6-.3-14.1-1.8-1-1-13.2-23-27.1-49-13.9-26-25.7-47.2-26.2-47.2s-.9 21.1-.9 47.8c0 35.8-.3 48.1-1.2 49-.8.8-5.5 1.2-14.5 1.2H246l-1-2.6zM390 366.1c-1.4-2.7-1.4-153.5 0-156.2 1-1.7 2.2-1.9 14.3-1.9 7.3 0 13.8.4 14.5.8 1 .7 1.2 17.3 1 79.8l-.3 78.9-14.2.3c-13.2.2-14.3.1-15.3-1.7zM453.2 366.8c-1.7-1.7-1.8-155.8 0-157.6.8-.8 5.3-1.2 13.5-1.2 10.4 0 12.6.3 14.1 1.8.9.9 13 23 26.7 48.9 13.8 26 25.3 47.3 25.8 47.3.4 0 .7-21.2.7-47.1 0-30.5.4-47.7 1-49 1-1.7 2.2-1.9 14.3-1.9 9 0 13.7.4 14.5 1.2 1.7 1.7 1.7 155.9 0 157.6-.8.8-5.2 1.2-13.3 1.2-11.3 0-12.3-.2-14.2-2.2-1.2-1.3-13.4-23.2-27.1-48.8-13.7-25.5-25.5-46.6-26.1-46.8-.8-.3-1.2 13.6-1.3 48.5l-.3 48.8-13.5.3c-9.7.2-13.9-.1-14.8-1zM621 366.6c-11.1-3.1-20-10.9-24.1-21.2l-2.4-5.9V288c0-51.4 0-51.5 2.3-57.2 2.8-6.8 9.9-15.1 15.6-18 8-4.1 13.1-4.8 35.6-4.8 24.9 0 30.4 1 39 6.8 10.3 7 14.9 17.1 15.3 33.4.3 13 .6 12.8-15.2 12.8-6.9 0-13.3-.5-14.1-1-1.1-.7-1.7-3.5-2-10-.5-8.1-.9-9.3-3.3-11.8-2.7-2.7-2.9-2.7-17.7-3-12.2-.3-15.5 0-18.4 1.3-6.1 2.9-6.1 3.2-6.1 52 0 40.1.2 44.3 1.8 47.2 2.5 4.6 6.6 5.5 23.4 5.1 14.1-.3 14.3-.3 17-3.1 2.7-2.7 2.8-3.1 3.1-15.9.3-10.1.1-13.3-1-13.9-.7-.5-5.4-.9-10.5-.9-11.3 0-11.3 0-11.3-13.9 0-14-1.5-13.3 28.4-12.9 17.6.2 23.8.6 24.8 1.6 1.7 1.7 2.3 38.4.9 51.4-1.9 17.2-10.3 28.3-24.7 32.8-5.9 1.8-9.1 2-29.3 1.9-14.8 0-24.2-.5-27.1-1.3zM3 160.1c-.7-1.3-1-27.8-1-78.9 0-64.9.2-77.1 1.4-78.1 1-.9 11.5-1.1 39.3-.9 37.3.3 37.9.3 43.8 2.7 8 3.2 15.4 10.7 18.5 18.6 2 5 2.4 8.3 2.8 20.2.6 20.5-2.1 26.9-13.7 33.2l-5.4 2.9 4.1 1.1c5.5 1.5 12.1 6.7 14.5 11.4 4.7 9.1 4.6 37.5-.2 48.2-4.7 10.5-14 17.9-25.9 20.4-3.3.7-18.8 1.1-41.2 1.1-34.5 0-36-.1-37-1.9zm72.2-26.4c3.9-2.7 4.8-6.5 4.8-19.9 0-13.4-1.2-17.6-5.8-19.9-3.7-1.8-37.7-2.6-39.7-.9-1.2 1-1.5 4.9-1.5 20.5 0 10.7.3 20.1.6 21 .6 1.5 2.7 1.6 19.8 1.3 16.5-.3 19.5-.6 21.8-2.1zm-5.3-68c6.3-2.2 7.6-5.3 7.6-18 0-12.6-1.3-16.6-6.2-18.6-1.9-.8-8.7-1.1-20.3-.9l-17.5.3-.3 17c-.1 9.4 0 18 .3 19.3.5 2.2.7 2.2 16.8 2.1 9.8 0 17.5-.5 19.6-1.2zM138.2 160.8c-1.6-1.6-1.5-33.1.1-37.3 2.8-7.1 6.6-10.9 33.8-34.1C205.8 60.8 206 60.6 206 45.8c0-15.5-2.6-17.8-20.4-17.8-11.3 0-11.6.1-14.8 2.9-3.1 2.8-3.2 3.2-3.8 12.6-.7 12.5-.6 12.5-16 12.5-15.8 0-15.3.5-14.8-15.1.3-11.1.7-13.1 3.2-18.6 3.4-7.5 9.4-13.4 17.4-17.1 5.7-2.7 5.8-2.7 29.2-2.7h23.5l6.2 2.9c7.1 3.3 14.4 10.4 17.3 16.9 5.5 12.4 5.2 36.4-.5 47.8-3.7 7.3-6.5 10-32 31.7-13.2 11.2-25 21.5-26.2 22.9-1.6 1.6-2.3 3.7-2.3 6.4v3.9h31.5c30 0 31.5.1 32.5 1.9.5 1.1 1 6.5 1 12 0 7.7-.4 10.3-1.6 11.5-1.4 1.4-7.2 1.6-48.8 1.6-35.4 0-47.5-.3-48.4-1.2zM330.2 160.8c-.8-.8-1.2-5.5-1.2-14.5V133h-32c-34.8 0-37.3-.3-38.6-5.5-.3-1.3-.4-7-.2-12.7l.3-10.3 26.5-49c14.5-26.9 27.4-50 28.7-51.3 2.1-2.1 2.8-2.2 20.8-2.2 18.4 0 18.6 0 21 2.5l2.5 2.4V106h9.9c5.5 0 10.6.3 11.5.6 1.3.5 1.6 2.6 1.6 12.5 0 14.2.3 13.9-13.4 13.9H358v13.9c0 11.7-.2 14-1.6 14.5-3 1.2-24.9.7-26.2-.6zM329 67.3c0-26-.3-38.4-1-37.7-1 1-40 75-40 75.9 0 .3 9.2.5 20.5.5H329V67.3zM416 160.8c-5.4-1.5-9.7-6.3-10.9-12-1.5-6.6-1.4-128.6 0-134.8 1.1-4.9 3.7-8.3 8.4-10.8 2.8-1.6 14.3-1.7 139-1.7s136.2.1 139 1.7c4.7 2.5 7.3 5.9 8.4 10.8 1.4 6.2 1.5 128.2 0 134.8-1.2 5.9-5.6 10.5-11.4 12.1-5.3 1.4-267.4 1.4-272.5-.1z"/></g></svg>